<svg version="1.2" xmlns="http://www.w3.org/2000/svg" viewBox="0 0 240 240" width="240" height="240">
	<style>
		.s0 { fill: #52155a } 
	</style>
	<path id="Large copy" fill-rule="evenodd" class="s0" d="m120.75 217.5c-55.71 0-100.75-45.04-100.75-100.75 0-55.71 45.04-100.75 100.75-100.75 55.71 0 100.75 45.04 100.75 100.75 0 55.71-45.04 100.75-100.75 100.75zm-53.75-101c0 29.59 23.91 53.5 53.5 53.5 29.08 0 52.69-23.11 53.48-52h-17.01c-0.78 19.49-16.79 35-36.47 35-20.18 0-36.5-16.32-36.5-36.5 0-20.02 16.05-36.23 36-36.5v-17c-29.35 0.27-53 24.08-53 53.5z"/>
</svg>