<svg version="1.2" xmlns="http://www.w3.org/2000/svg" viewBox="0 0 706 248" width="706" height="248">
	<style>
		.s0 { fill: #52155a } 
	</style>
	<path id="GO copy" fill-rule="evenodd" class="s0" d="m607.66 115.11v38.56q-7.26 3.76-15.08 5.64-7.76 1.88-16.03 1.88-18.77 0-29.72-11.17-10.94-11.22-10.94-30.4 0-19.39 11.11-30.51 11.17-11.11 30.61-11.11 7.49 0 14.36 1.5 6.87 1.5 12.96 4.46v16.59q-6.31-3.81-12.51-5.69-6.21-1.88-12.46-1.88-11.56 0-17.82 6.93-6.26 6.87-6.26 19.71 0 12.73 6.04 19.66 6.03 6.93 17.14 6.93 3.02 0 5.59-0.38 2.63-0.43 4.64-1.29v-15.57h-11.79v-13.86zm51.28-37.11q18.1 0 28.32 11.06 10.28 11.06 10.28 30.56 0 19.44-10.28 30.51-10.22 11.06-28.32 11.06-18.04 0-28.32-11.06-10.28-11.07-10.28-30.51 0-19.5 10.28-30.56 10.28-11.06 28.32-11.06zm0 14.98q-8.83 0-13.74 6.98-4.86 6.99-4.86 19.66 0 12.62 4.86 19.61 4.91 6.98 13.74 6.98 8.88 0 13.74-6.98 4.92-6.99 4.92-19.61 0-12.67-4.92-19.66-4.86-6.98-13.74-6.98zm-334.86 59.67v-28.09h-20.87v-4.41h26.3v35.07q-5.87 2.85-12.88 4.25-7.01 1.45-15.01 1.55-17.75 0-27.72-11.01-10.03-10.95-10.03-30.56 0-19.66 10.03-30.67 9.97-10.95 27.72-10.95 7.34 0 13.86 1.45 6.57 1.55 12.05 4.56v5.21q-5.53-3.01-11.83-4.56-6.25-1.51-13.15-1.51-16.49 0-24.76 9.19-8.27 9.13-8.27 27.28 0 18.43 8.27 27.72 8.27 9.34 24.76 9.34 6.74 0 12.05-0.91 5.26-0.97 9.48-2.95zm61.58-74.82q15.89 0 25.42 11.28 9.53 11.33 9.53 30.34 0 18.96-9.53 30.24-9.53 11.33-25.42 11.33-15.94 0-25.53-11.27-9.53-11.28-9.53-30.3 0-19.01 9.53-30.34 9.59-11.28 25.53-11.28zm21.31 14.23q-7.89-10.04-21.31-10.04-13.42 0-21.37 10.04-7.89 10.04-7.89 27.39 0 17.24 7.89 27.29 7.95 10.04 21.37 10.04 13.42 0 21.31-10.04 7.84-10.05 7.84-27.29 0-17.35-7.84-27.39zm-16.16-26.53v-6.5h5.04v6.5zm-15.45 0v-6.5h5.15v6.5zm68.04 93.94v-80.19h20.11q22.35 0 32.82 9.72 10.46 9.67 10.46 30.29 0 20.73-10.52 30.46-10.52 9.72-32.76 9.72zm21.8-75.63h-16.21v71.28h16.21q18.52 0 27.12-8.6 8.66-8.59 8.66-27.12 0-18.42-8.66-27.02-8.6-8.54-27.12-8.54zm-356.46 140.66c-55.71 0-100.75-45.04-100.75-100.75 0-55.71 45.04-100.75 100.75-100.75 55.72 0 100.75 45.04 100.75 100.75 0 55.71-45.03 100.75-100.75 100.75zm-53.75-101c0 29.59 23.92 53.5 53.5 53.5 29.09 0 52.69-23.11 53.48-52h-17.01c-0.78 19.49-16.79 35-36.47 35-20.18 0-36.5-16.32-36.5-36.5 0-20.02 16.05-36.23 36-36.5v-17c-29.35 0.27-53 24.08-53 53.5z"/>
</svg>